<?xml version="1.0" standalone="no"?>
<!DOCTYPE svg PUBLIC "-//W3C//DTD SVG 20010904//EN"
 "http://www.w3.org/TR/2001/REC-SVG-20010904/DTD/svg10.dtd">
<svg version="1.0" xmlns="http://www.w3.org/2000/svg"
 width="500.000000pt" height="500.000000pt" viewBox="0 0 500.000000 500.000000"
 preserveAspectRatio="xMidYMid meet">
<metadata>
Created by potrace 1.16, written by Peter Selinger 2001-2019
</metadata>
<g transform="translate(0.000000,500.000000) scale(0.100000,-0.100000)"
fill="#000000" stroke="none">
<path d="M3039 1963 c-1 -5 -1 -11 0 -15 0 -5 -11 -8 -25 -8 -19 0 -25 -4 -21
-15 4 -8 1 -17 -5 -21 -6 -4 -8 -3 -5 3 3 5 0 10 -7 10 -8 0 -12 -6 -9 -14 3
-7 -2 -13 -11 -13 -9 0 -16 -4 -16 -10 0 -5 -7 -6 -17 -3 -10 4 -14 2 -10 -4
8 -13 -38 -34 -60 -27 -13 4 -14 3 -5 -3 9 -7 -6 -18 -52 -37 -36 -15 -69 -28
-73 -27 -4 0 -17 -6 -28 -13 -11 -7 -85 -41 -165 -76 -80 -34 -162 -71 -184
-81 -21 -10 -43 -16 -47 -13 -5 3 -21 -4 -35 -15 -14 -11 -32 -17 -40 -14 -9
3 -21 -3 -30 -16 -8 -11 -23 -21 -32 -21 -12 1 -10 5 8 15 28 16 27 17 -12 19
-15 1 -24 -2 -22 -6 3 -4 -2 -8 -10 -8 -9 0 -16 4 -16 8 0 4 -10 8 -22 9 -12
1 -26 9 -31 18 -8 15 -10 15 -27 0 -15 -13 -31 -15 -77 -11 -34 4 -62 12 -68
21 -8 12 -12 7 -21 -23 l-12 -37 -2 50 -3 50 -7 -45 -7 -45 -3 60 -3 60 -8
-65 c-5 -48 -6 -32 -4 60 2 77 9 141 18 168 8 23 11 42 8 42 -23 0 -34 -88
-38 -287 l-5 -213 24 0 c12 0 37 7 53 16 17 9 98 45 180 81 83 35 204 89 270
118 66 30 222 99 348 154 235 102 306 140 373 197 35 30 37 33 17 34 -13 0
-24 -3 -24 -7z"/>
</g>
</svg>
