<?xml version="1.0"?>
<svg xmlns="http://www.w3.org/2000/svg" enable-background="new 0 0 24 24" height="512px" viewBox="0 0 24 24" width="512px" class="hovered-paths"><g><g id="color"><g><path d="m15.309.75h-.788-5.042-.788c-.956 0-1.733.848-1.733 1.891v12.719c0 1.043.777 1.891 1.733 1.891h6.617c.956 0 1.733-.848 1.733-1.891v-12.719c.001-1.043-.777-1.891-1.732-1.891z" fill="#607d8b" data-original="#607D8B" class="hovered-path active-path" style="fill:#A7808000" data-old_color="#607d8b"/></g><g><path d="m16.75 16.439c0 .448-.354.811-.792.811h-7.916c-.437 0-.792-.363-.792-.811v-14.878c0-.448.354-.811.792-.811h.396c.437 0 .792.363.792.811 0 .448.354.811.792.811h3.958c.437 0 .792-.363.792-.811 0-.448.354-.811.792-.811h.396c.437 0 .792.363.792.811v14.878z" fill="#eceff1" data-original="#ECEFF1" class="" style="fill:#A7808000" data-old_color="#eceff1"/></g></g><g id="_x31__x2C_5"><g><path d="m13.5 3.5h-3c-.965 0-1.75-.785-1.75-1.75 0-.138-.112-.25-.25-.25-.414 0-.75-.336-.75-.75s.336-.75.75-.75c.965 0 1.75.785 1.75 1.75 0 .138.112.25.25.25h3c.138 0 .25-.112.25-.25 0-.965.785-1.75 1.75-1.75.414 0 .75.336.75.75s-.336.75-.75.75c-.138 0-.25.112-.25.25 0 .965-.785 1.75-1.75 1.75z" data-original="#000000" class="" style="fill:#FFFFFF" data-old_color="#000000"/></g><g><path d="m12 22.179c-6.729 0-12-2.686-12-6.114 0-.946.409-1.88 1.183-2.7.284-.301.759-.314 1.06-.031.301.284.315.759.031 1.06-.514.544-.774 1.106-.774 1.671 0 2.229 4.219 4.614 10.5 4.614.414 0 .75.336.75.75s-.336.75-.75.75z" data-original="#000000" class="" style="fill:#FFFFFF" data-old_color="#000000"/></g><g><path d="m14.48 22.048c-.378 0-.704-.285-.745-.67-.044-.412.254-.782.666-.826 4.617-.495 8.099-2.424 8.099-4.488 0-.573-.259-1.133-.77-1.666-.287-.299-.276-.774.022-1.061s.772-.276 1.061.022c.777.812 1.187 1.747 1.187 2.706 0 2.925-3.881 5.383-9.439 5.979-.027.003-.054.004-.081.004z" data-original="#000000" class="" style="fill:#FFFFFF" data-old_color="#000000"/></g><g><path d="m9.555 24.13c-.22 0-.438-.097-.587-.282-.258-.324-.205-.796.119-1.054l1.711-1.364-1.711-1.364c-.324-.258-.377-.73-.119-1.054.259-.323.73-.375 1.054-.119l2.446 1.951c.178.143.282.358.282.586s-.104.444-.282.586l-2.446 1.951c-.138.109-.303.163-.467.163z" data-original="#000000" class="" style="fill:#FFFFFF" data-old_color="#000000"/></g><g><path d="m15.25 18h-6.5c-1.241 0-2.25-1.009-2.25-2.25v-13.5c0-1.241 1.009-2.25 2.25-2.25h6.5c1.241 0 2.25 1.009 2.25 2.25v13.5c0 1.241-1.009 2.25-2.25 2.25zm-6.5-16.5c-.414 0-.75.336-.75.75v13.5c0 .414.336.75.75.75h6.5c.414 0 .75-.336.75-.75v-13.5c0-.414-.336-.75-.75-.75z" data-original="#000000" class="" style="fill:#FFFFFF" data-old_color="#000000"/></g></g></g> </svg>
