<?xml version="1.0"?>
<svg xmlns="http://www.w3.org/2000/svg" xmlns:xlink="http://www.w3.org/1999/xlink" xmlns:svgjs="http://svgjs.com/svgjs" version="1.1" width="512" height="512" x="0" y="0" viewBox="0 0 60 58" style="enable-background:new 0 0 512 512" xml:space="preserve"><g><g xmlns="http://www.w3.org/2000/svg" id="Page-1" fill="none" fill-rule="evenodd"><g id="054---Mobile-No-Messanger" fill="rgb(0,0,0)" fill-rule="nonzero"><path id="Shape" d="m56 22h-5v-8c0-2.7614237-2.2385763-5-5-5h-5.19c-.7454497-4.00900666-3.6474799-7.27670173-7.540368-8.49047781-3.892888-1.21377608-8.1378169-.17445435-11.029632 2.70047781-1.5569134 1.57431365-2.602494 3.58182833-3 5.76h-5.24c-2.7614237 0-5 2.2385763-5 5v8h-5c-2.209139 0-4 1.790861-4 4v28.03c0 2.209139 1.790861 4 4 4h52c2.209139 0 4-1.790861 4-4v-28c0-2.209139-1.790861-4-4-4zm-17-11c-.003432 2.0440516-.7095708 4.024771-2 5.61l-12.61-12.61c2.6977704-2.15056611 6.3875082-2.56966725 9.4988775-1.07893586 3.1113694 1.4907314 5.0967305 4.62890798 5.1111225 8.07893586zm-16-5.61 12.61 12.61c-3.5832338 2.7192954-8.6239503 2.3754174-11.8046839-.8053161-3.1807335-3.1807336-3.5246115-8.22145009-.8053161-11.8046839zm-12 8.61c0-1.6568542 1.3431458-3 3-3h5c.0025468 4.443265 2.6779925 8.4486836 6.7815365 10.1526605 4.1035439 1.703977 8.8292767.7718622 11.9784635-2.3626605 2.0724665-2.0628142 3.238323-4.8659075 3.24-7.79h5c1.6568542 0 3 1.3431458 3 3v22c0 1.6568542-1.3431458 3-3 3h-17.67c-.4236529-.0015088-.8368417.131552-1.18.38l-9.15 6.62v-5c0-1.1045695-.8954305-2-2-2h-2c-1.6568542 0-3-1.3431458-3-3zm-9 18.31 1.37 1.28c.4027547.378682.63080487.9071793.63 1.46v9.95c.00080487.5528207-.2272453 1.081318-.63 1.46l-1.37 1.23zm0 21.69v-3.57l2.74-2.56c.79294154-.7454232 1.24791871-1.7817601 1.26-2.87v-9.9c.00160975-1.1056415-.4544906-2.1626359-1.26-2.92l-2.74-2.61v-3.57c0-1.1045695.8954305-2 2-2h5v12c0 1.3260824.5267842 2.597852 1.4644661 3.5355339s2.2094515 1.4644661 3.5355339 1.4644661h2v5c.0018061.7521989.4255081 1.4397738 1.0966005 1.7795407s1.4760715.2742601 2.0833995-.1695407l9.15-6.61h17.67c1.3260824 0 2.597852-.5267842 3.5355339-1.4644661s1.4644661-2.2094515 1.4644661-3.5355339v-12c1.1045695 0 2 .8954305 2 2v28c0 1.1045695-.8954305 2-2 2h-47c-1.1045695 0-2-.8954305-2-2zm56 0c0 1.1045695-.8954305 2-2 2h-1.56c.3635516-.6039929.5570448-1.2950401.56-2v-28c-.0029552-.7049599-.1964484-1.3960071-.56-2h1.56c1.1045695 0 2 .8954305 2 2z" fill="#eb763e" data-original="#000000" style=""/><path id="Shape" d="m15 16h1c.5522847 0 1-.4477153 1-1s-.4477153-1-1-1h-1c-.5522847 0-1 .4477153-1 1s.4477153 1 1 1z" fill="#eb763e" data-original="#000000" style=""/><path id="Shape" d="m15 20h4c.5522847 0 1-.4477153 1-1s-.4477153-1-1-1h-4c-.5522847 0-1 .4477153-1 1s.4477153 1 1 1z" fill="#eb763e" data-original="#000000" style=""/><path id="Shape" d="m15 24h8c.5522847 0 1-.4477153 1-1s-.4477153-1-1-1h-8c-.5522847 0-1 .4477153-1 1s.4477153 1 1 1z" fill="#eb763e" data-original="#000000" style=""/><path id="Shape" d="m44 16h1c.5522847 0 1-.4477153 1-1s-.4477153-1-1-1h-1c-.5522847 0-1 .4477153-1 1s.4477153 1 1 1z" fill="#eb763e" data-original="#000000" style=""/><path id="Shape" d="m41 20h4c.5522847 0 1-.4477153 1-1s-.4477153-1-1-1h-4c-.5522847 0-1 .4477153-1 1s.4477153 1 1 1z" fill="#eb763e" data-original="#000000" style=""/><path id="Shape" d="m37 24h8c.5522847 0 1-.4477153 1-1s-.4477153-1-1-1h-8c-.5522847 0-1 .4477153-1 1s.4477153 1 1 1z" fill="#eb763e" data-original="#000000" style=""/><path id="Shape" d="m15 28h30c.5522847 0 1-.4477153 1-1s-.4477153-1-1-1h-30c-.5522847 0-1 .4477153-1 1s.4477153 1 1 1z" fill="#eb763e" data-original="#000000" style=""/><path id="Shape" d="m15 32h30c.5522847 0 1-.4477153 1-1s-.4477153-1-1-1h-30c-.5522847 0-1 .4477153-1 1s.4477153 1 1 1z" fill="#eb763e" data-original="#000000" style=""/></g></g></g></svg>
